<svg width="329" height="197" viewBox="0 0 329 197" fill="none" xmlns="http://www.w3.org/2000/svg">
<rect x="0.988281" y="0.689941" width="328" height="196" rx="19" fill="url(#paint0_linear_1878_5519)"/>
<g filter="url(#filter0_d_1878_5519)">
<path d="M96.1567 98.904V101.88L90.7807 103.224L90.0127 111H83.7727L81.8527 91.608H96.5727L97.5647 95.576L91.5167 95.96L91.1967 98.904H96.1567ZM104.821 111.32C100.789 111.32 98.7727 108.579 98.7727 103.096C98.7727 101.624 99.018 99.2027 99.5087 95.832H105.717V102.744C105.717 105.219 106.41 106.456 107.797 106.456C109.013 106.456 109.621 105.347 109.621 103.128C109.621 102.957 109.621 102.776 109.621 102.584L109.333 95.832H116.533L115.861 111H110.453L110.101 108.056C110.058 108.141 110.005 108.259 109.941 108.408C109.877 108.557 109.695 108.824 109.397 109.208C109.119 109.571 108.799 109.901 108.437 110.2C108.074 110.477 107.573 110.733 106.933 110.968C106.293 111.203 105.589 111.32 104.821 111.32ZM130.316 95.384C131.809 95.384 133.089 96.0133 134.156 97.272C135.244 98.5307 135.788 100.173 135.788 102.2C135.788 104.205 135.543 107.139 135.052 111H129.452L128.812 103.832C128.599 101.549 127.98 100.408 126.956 100.408C125.74 100.408 125.089 101.56 125.004 103.864L124.78 111H118.892L118.22 95.832H125.452L125.324 98.552C125.431 98.3387 125.676 98.008 126.06 97.56C126.444 97.112 126.817 96.7493 127.18 96.472C128.119 95.7467 129.164 95.384 130.316 95.384ZM149.576 95.384C151.069 95.384 152.349 96.0133 153.416 97.272C154.504 98.5307 155.048 100.173 155.048 102.2C155.048 104.205 154.803 107.139 154.312 111H148.712L148.072 103.832C147.859 101.549 147.24 100.408 146.216 100.408C145 100.408 144.349 101.56 144.264 103.864L144.04 111H138.152L137.48 95.832H144.712L144.584 98.552C144.691 98.3387 144.936 98.008 145.32 97.56C145.704 97.112 146.077 96.7493 146.44 96.472C147.379 95.7467 148.424 95.384 149.576 95.384ZM167.844 107.448V107.192C167.78 107.555 167.609 107.96 167.332 108.408C167.076 108.835 166.788 109.197 166.468 109.496C166.148 109.795 165.689 110.061 165.092 110.296C164.516 110.531 163.748 110.648 162.788 110.648C161.828 110.648 160.921 110.435 160.068 110.008C159.215 109.56 158.553 108.952 158.084 108.184C157.188 106.755 156.74 105.187 156.74 103.48C156.74 101.752 156.985 99.2027 157.476 95.832H163.684V102.744C163.684 105.091 164.377 106.264 165.764 106.264C166.383 106.264 166.841 105.987 167.14 105.432C167.439 104.877 167.588 104.173 167.588 103.32C167.588 103.213 167.588 103.096 167.588 102.968L167.3 95.832H174.5L174.052 105.656C173.988 107.043 173.881 108.227 173.732 109.208C173.604 110.189 173.348 111.192 172.964 112.216C172.601 113.261 172.121 114.104 171.524 114.744C170.137 116.195 168.079 116.92 165.348 116.92C163.428 116.92 161.625 116.323 159.94 115.128L159.652 114.936L160.996 112.184C162.02 112.653 162.98 112.888 163.876 112.888C165.113 112.888 166.084 112.408 166.788 111.448C167.492 110.509 167.844 109.176 167.844 107.448ZM196.886 108.76C195.286 110.467 193.142 111.32 190.454 111.32C187.787 111.32 185.718 110.605 184.246 109.176C182.774 107.725 182.038 105.688 182.038 103.064C182.038 100.44 182.827 98.5093 184.406 97.272C185.984 96.0133 187.958 95.384 190.326 95.384C191.328 95.384 192.288 95.48 193.206 95.672C194.144 95.864 194.827 96.0667 195.254 96.28L195.894 96.568L195.19 99.864C194.315 99.608 193.408 99.48 192.47 99.48C191.552 99.48 190.71 99.7787 189.942 100.376C189.195 100.952 188.822 101.848 188.822 103.064C188.822 105.795 189.878 107.16 191.99 107.16C192.544 107.16 193.078 107.096 193.59 106.968C194.102 106.819 194.475 106.669 194.71 106.52L195.062 106.328L196.886 108.76ZM203.086 111.32C201.443 111.32 200.089 110.84 199.022 109.88C197.977 108.92 197.454 107.565 197.454 105.816C197.454 104.045 198.051 102.765 199.246 101.976C200.441 101.165 201.881 100.76 203.566 100.76C205.251 100.76 206.713 101.027 207.95 101.56C207.673 99.7893 206.553 98.904 204.59 98.904C203.694 98.904 202.585 99.0853 201.262 99.448L200.462 96.568C202.382 95.7787 204.334 95.384 206.318 95.384C212.035 95.384 214.894 97.816 214.894 102.68C214.894 104.344 214.702 106.648 214.318 109.592L214.158 111H208.878L208.686 109.24C207.235 110.627 205.369 111.32 203.086 111.32ZM205.966 107.352C206.926 107.352 207.747 107.085 208.43 106.552L208.238 104.44C207.705 104.077 207.107 103.896 206.446 103.896C205.806 103.896 205.273 104.056 204.846 104.376C204.441 104.696 204.238 105.091 204.238 105.56C204.238 106.029 204.398 106.445 204.718 106.808C205.038 107.171 205.454 107.352 205.966 107.352ZM223.665 97.912C224.796 96.2267 226.193 95.384 227.857 95.384C228.647 95.384 229.372 95.576 230.033 95.96L229.265 101.208C228.412 100.611 227.452 100.312 226.385 100.312C225.361 100.312 224.668 100.739 224.305 101.592C224.092 102.125 223.953 102.637 223.889 103.128L223.281 111H217.521L216.561 95.832H222.865L223.665 97.912ZM230.599 103.064C230.599 101.592 230.802 100.323 231.207 99.256C231.634 98.1893 232.188 97.3893 232.871 96.856C234.13 95.8747 235.527 95.384 237.063 95.384C237.831 95.384 238.535 95.544 239.175 95.864C239.836 96.1627 240.295 96.472 240.551 96.792L240.935 97.24L240.679 90.232H247.975L247.111 111H242.311L241.767 108.92C240.487 110.499 238.908 111.288 237.031 111.288C235.175 111.309 233.639 110.616 232.423 109.208C231.207 107.8 230.599 105.752 230.599 103.064ZM239.111 99.672C237.852 99.672 237.223 100.952 237.223 103.512C237.223 103.981 237.255 104.429 237.319 104.856C237.383 105.283 237.575 105.731 237.895 106.2C238.215 106.669 238.684 106.904 239.303 106.904C239.922 106.904 240.391 106.563 240.711 105.88C241.052 105.176 241.223 104.387 241.223 103.512C241.223 100.952 240.519 99.672 239.111 99.672Z" fill="#FFEDED"/>
</g>
<g filter="url(#filter1_d_1878_5519)">
<circle cx="166.364" cy="45.5197" r="28.466" shape-rendering="crispEdges"/>
<circle cx="166.364" cy="45.5197" r="27.5106" stroke="white" stroke-width="1.91081" shape-rendering="crispEdges"/>
</g>
<circle cx="190.311" cy="62.0696" r="10.1062" fill="white" stroke="black" stroke-width="1.13713"/>
<path d="M185.57 66.8079L185.571 66.8096C185.619 66.8576 185.676 66.8958 185.738 66.9218C185.801 66.9478 185.868 66.9612 185.935 66.9613C185.992 66.9613 186.049 66.9519 186.103 66.9335L189.036 65.9385L194.664 60.3101C195.008 59.966 195.201 59.4993 195.201 59.0127C195.201 58.5261 195.008 58.0594 194.664 57.7153C194.32 57.3712 193.853 57.178 193.366 57.178C192.88 57.178 192.413 57.3713 192.069 57.7154L186.441 63.3438L185.446 66.2768C185.414 66.368 185.409 66.4662 185.431 66.5602C185.453 66.6541 185.501 66.7399 185.57 66.8079ZM192.536 58.1828C192.757 57.964 193.055 57.8416 193.366 57.8422C193.676 57.8428 193.974 57.9664 194.193 58.186C194.413 58.4056 194.537 58.7032 194.537 59.0138C194.538 59.3243 194.415 59.6224 194.196 59.8429L193.456 60.583L191.796 58.9229L192.536 58.1828ZM187.017 63.7021L191.329 59.3903L192.989 61.0504L188.677 65.3621L186.165 66.2144L187.017 63.7021Z" fill="black"/>
<defs>
<filter id="filter0_d_1878_5519" x="65.8516" y="74.2321" width="198.125" height="58.688" filterUnits="userSpaceOnUse" color-interpolation-filters="sRGB">
<feFlood flood-opacity="0" result="BackgroundImageFix"/>
<feColorMatrix in="SourceAlpha" type="matrix" values="0 0 0 0 0 0 0 0 0 0 0 0 0 0 0 0 0 0 127 0" result="hardAlpha"/>
<feOffset/>
<feGaussianBlur stdDeviation="8"/>
<feComposite in2="hardAlpha" operator="out"/>
<feColorMatrix type="matrix" values="0 0 0 0 0 0 0 0 0 0 0 0 0 0 0 0 0 0 0.25 0"/>
<feBlend mode="normal" in2="BackgroundImageFix" result="effect1_dropShadow_1878_5519"/>
<feBlend mode="normal" in="SourceGraphic" in2="effect1_dropShadow_1878_5519" result="shape"/>
</filter>
<filter id="filter1_d_1878_5519" x="129.937" y="9.09202" width="72.857" height="72.8554" filterUnits="userSpaceOnUse" color-interpolation-filters="sRGB">
<feFlood flood-opacity="0" result="BackgroundImageFix"/>
<feColorMatrix in="SourceAlpha" type="matrix" values="0 0 0 0 0 0 0 0 0 0 0 0 0 0 0 0 0 0 127 0" result="hardAlpha"/>
<feOffset/>
<feGaussianBlur stdDeviation="3.98085"/>
<feComposite in2="hardAlpha" operator="out"/>
<feColorMatrix type="matrix" values="0 0 0 0 0 0 0 0 0 0 0 0 0 0 0 0 0 0 0.25 0"/>
<feBlend mode="normal" in2="BackgroundImageFix" result="effect1_dropShadow_1878_5519"/>
<feBlend mode="normal" in="SourceGraphic" in2="effect1_dropShadow_1878_5519" result="shape"/>
</filter>
<linearGradient id="paint0_linear_1878_5519" x1="11.7135" y1="10.6699" x2="316.663" y2="146.229" gradientUnits="userSpaceOnUse">
<stop stop-color="#8D81E3"/>
<stop offset="0.607127" stop-color="#6C60CA"/>
</linearGradient>
</defs>
</svg>
